<svg width="657" height="45" viewBox="0 0 657 45" fill="none" xmlns="http://www.w3.org/2000/svg">
<rect width="109" height="45" rx="22.5" fill="#3F3F79"/>
<rect x="55" width="548" height="13" rx="6.5" fill="#3F3F79"/>
<rect x="548" width="109" height="45" rx="22.5" fill="#3F3F79"/>
<path d="M583.72 27.46C583.867 27.4733 584.033 27.4867 584.22 27.5C584.42 27.5 584.653 27.5 584.92 27.5C586.48 27.5 587.633 27.1067 588.38 26.32C589.14 25.5333 589.52 24.4467 589.52 23.06C589.52 21.6067 589.16 20.5067 588.44 19.76C587.72 19.0133 586.58 18.64 585.02 18.64C584.807 18.64 584.587 18.6467 584.36 18.66C584.133 18.66 583.92 18.6733 583.72 18.7V27.46ZM592.74 23.06C592.74 24.26 592.553 25.3067 592.18 26.2C591.807 27.0933 591.273 27.8333 590.58 28.42C589.9 29.0067 589.067 29.4467 588.08 29.74C587.093 30.0333 585.987 30.18 584.76 30.18C584.2 30.18 583.547 30.1533 582.8 30.1C582.053 30.06 581.32 29.9667 580.6 29.82V16.32C581.32 16.1867 582.067 16.1 582.84 16.06C583.627 16.0067 584.3 15.98 584.86 15.98C586.047 15.98 587.12 16.1133 588.08 16.38C589.053 16.6467 589.887 17.0667 590.58 17.64C591.273 18.2133 591.807 18.9467 592.18 19.84C592.553 20.7333 592.74 21.8067 592.74 23.06ZM601.486 22.12C601.219 22.0533 600.906 21.9867 600.546 21.92C600.186 21.84 599.799 21.8 599.386 21.8C599.199 21.8 598.973 21.82 598.706 21.86C598.453 21.8867 598.259 21.92 598.126 21.96V30H595.146V20.04C595.679 19.8533 596.306 19.68 597.026 19.52C597.759 19.3467 598.573 19.26 599.466 19.26C599.626 19.26 599.819 19.2733 600.046 19.3C600.273 19.3133 600.499 19.34 600.726 19.38C600.953 19.4067 601.179 19.4467 601.406 19.5C601.633 19.54 601.826 19.5933 601.986 19.66L601.486 22.12ZM613.228 24.72C613.228 25.5467 613.108 26.3067 612.868 27C612.628 27.68 612.282 28.2667 611.828 28.76C611.375 29.24 610.828 29.6133 610.188 29.88C609.562 30.1467 608.855 30.28 608.068 30.28C607.295 30.28 606.588 30.1467 605.948 29.88C605.322 29.6133 604.782 29.24 604.328 28.76C603.875 28.2667 603.522 27.68 603.268 27C603.015 26.3067 602.888 25.5467 602.888 24.72C602.888 23.8933 603.015 23.14 603.268 22.46C603.535 21.78 603.895 21.2 604.348 20.72C604.815 20.24 605.362 19.8667 605.988 19.6C606.628 19.3333 607.322 19.2 608.068 19.2C608.828 19.2 609.522 19.3333 610.148 19.6C610.788 19.8667 611.335 20.24 611.788 20.72C612.242 21.2 612.595 21.78 612.848 22.46C613.102 23.14 613.228 23.8933 613.228 24.72ZM610.188 24.72C610.188 23.8 610.002 23.08 609.628 22.56C609.268 22.0267 608.748 21.76 608.068 21.76C607.388 21.76 606.862 22.0267 606.488 22.56C606.115 23.08 605.928 23.8 605.928 24.72C605.928 25.64 606.115 26.3733 606.488 26.92C606.862 27.4533 607.388 27.72 608.068 27.72C608.748 27.72 609.268 27.4533 609.628 26.92C610.002 26.3733 610.188 25.64 610.188 24.72ZM622.277 24.82C622.277 23.9 622.07 23.1667 621.657 22.62C621.243 22.06 620.63 21.78 619.817 21.78C619.55 21.78 619.303 21.7933 619.077 21.82C618.85 21.8333 618.663 21.8533 618.517 21.88V27.26C618.703 27.38 618.943 27.48 619.237 27.56C619.543 27.64 619.85 27.68 620.157 27.68C621.57 27.68 622.277 26.7267 622.277 24.82ZM625.317 24.74C625.317 25.5533 625.217 26.2933 625.017 26.96C624.817 27.6267 624.523 28.2 624.137 28.68C623.75 29.16 623.27 29.5333 622.697 29.8C622.123 30.0667 621.463 30.2 620.717 30.2C620.303 30.2 619.917 30.16 619.557 30.08C619.197 30 618.85 29.8867 618.517 29.74V33.7H615.537V19.84C615.803 19.76 616.11 19.6867 616.457 19.62C616.803 19.54 617.163 19.4733 617.537 19.42C617.923 19.3667 618.31 19.3267 618.697 19.3C619.097 19.26 619.477 19.24 619.837 19.24C620.703 19.24 621.477 19.3733 622.157 19.64C622.837 19.8933 623.41 20.26 623.877 20.74C624.343 21.2067 624.697 21.78 624.937 22.46C625.19 23.14 625.317 23.9 625.317 24.74Z" fill="#DDDDED"/>
<path d="M36.72 27.46C36.8667 27.4733 37.0333 27.4867 37.22 27.5C37.42 27.5 37.6533 27.5 37.92 27.5C39.48 27.5 40.6333 27.1067 41.38 26.32C42.14 25.5333 42.52 24.4467 42.52 23.06C42.52 21.6067 42.16 20.5067 41.44 19.76C40.72 19.0133 39.58 18.64 38.02 18.64C37.8067 18.64 37.5867 18.6467 37.36 18.66C37.1333 18.66 36.92 18.6733 36.72 18.7V27.46ZM45.74 23.06C45.74 24.26 45.5533 25.3067 45.18 26.2C44.8067 27.0933 44.2733 27.8333 43.58 28.42C42.9 29.0067 42.0667 29.4467 41.08 29.74C40.0933 30.0333 38.9867 30.18 37.76 30.18C37.2 30.18 36.5467 30.1533 35.8 30.1C35.0533 30.06 34.32 29.9667 33.6 29.82V16.32C34.32 16.1867 35.0667 16.1 35.84 16.06C36.6267 16.0067 37.3 15.98 37.86 15.98C39.0467 15.98 40.12 16.1133 41.08 16.38C42.0533 16.6467 42.8867 17.0667 43.58 17.64C44.2733 18.2133 44.8067 18.9467 45.18 19.84C45.5533 20.7333 45.74 21.8067 45.74 23.06ZM54.4861 22.12C54.2194 22.0533 53.9061 21.9867 53.5461 21.92C53.1861 21.84 52.7994 21.8 52.3861 21.8C52.1994 21.8 51.9728 21.82 51.7061 21.86C51.4528 21.8867 51.2594 21.92 51.1261 21.96V30H48.1461V20.04C48.6794 19.8533 49.3061 19.68 50.0261 19.52C50.7594 19.3467 51.5728 19.26 52.4661 19.26C52.6261 19.26 52.8194 19.2733 53.0461 19.3C53.2728 19.3133 53.4994 19.34 53.7261 19.38C53.9528 19.4067 54.1794 19.4467 54.4061 19.5C54.6328 19.54 54.8261 19.5933 54.9861 19.66L54.4861 22.12ZM66.2283 24.72C66.2283 25.5467 66.1083 26.3067 65.8683 27C65.6283 27.68 65.2816 28.2667 64.8283 28.76C64.3749 29.24 63.8283 29.6133 63.1883 29.88C62.5616 30.1467 61.8549 30.28 61.0683 30.28C60.2949 30.28 59.5883 30.1467 58.9483 29.88C58.3216 29.6133 57.7816 29.24 57.3283 28.76C56.8749 28.2667 56.5216 27.68 56.2683 27C56.0149 26.3067 55.8883 25.5467 55.8883 24.72C55.8883 23.8933 56.0149 23.14 56.2683 22.46C56.5349 21.78 56.8949 21.2 57.3483 20.72C57.8149 20.24 58.3616 19.8667 58.9883 19.6C59.6283 19.3333 60.3216 19.2 61.0683 19.2C61.8283 19.2 62.5216 19.3333 63.1483 19.6C63.7883 19.8667 64.3349 20.24 64.7883 20.72C65.2416 21.2 65.5949 21.78 65.8483 22.46C66.1016 23.14 66.2283 23.8933 66.2283 24.72ZM63.1883 24.72C63.1883 23.8 63.0016 23.08 62.6283 22.56C62.2683 22.0267 61.7483 21.76 61.0683 21.76C60.3883 21.76 59.8616 22.0267 59.4883 22.56C59.1149 23.08 58.9283 23.8 58.9283 24.72C58.9283 25.64 59.1149 26.3733 59.4883 26.92C59.8616 27.4533 60.3883 27.72 61.0683 27.72C61.7483 27.72 62.2683 27.4533 62.6283 26.92C63.0016 26.3733 63.1883 25.64 63.1883 24.72ZM75.2767 24.82C75.2767 23.9 75.0701 23.1667 74.6567 22.62C74.2434 22.06 73.6301 21.78 72.8167 21.78C72.5501 21.78 72.3034 21.7933 72.0767 21.82C71.8501 21.8333 71.6634 21.8533 71.5167 21.88V27.26C71.7034 27.38 71.9434 27.48 72.2367 27.56C72.5434 27.64 72.8501 27.68 73.1567 27.68C74.5701 27.68 75.2767 26.7267 75.2767 24.82ZM78.3167 24.74C78.3167 25.5533 78.2167 26.2933 78.0167 26.96C77.8167 27.6267 77.5234 28.2 77.1367 28.68C76.7501 29.16 76.2701 29.5333 75.6967 29.8C75.1234 30.0667 74.4634 30.2 73.7167 30.2C73.3034 30.2 72.9167 30.16 72.5567 30.08C72.1967 30 71.8501 29.8867 71.5167 29.74V33.7H68.5367V19.84C68.8034 19.76 69.1101 19.6867 69.4567 19.62C69.8034 19.54 70.1634 19.4733 70.5367 19.42C70.9234 19.3667 71.3101 19.3267 71.6967 19.3C72.0967 19.26 72.4767 19.24 72.8367 19.24C73.7034 19.24 74.4767 19.3733 75.1567 19.64C75.8367 19.8933 76.4101 20.26 76.8767 20.74C77.3434 21.2067 77.6967 21.78 77.9367 22.46C78.1901 23.14 78.3167 23.9 78.3167 24.74Z" fill="#DDDDED"/>
</svg>
