<svg width="215" height="215" viewBox="0 0 215 215" fill="none" xmlns="http://www.w3.org/2000/svg">
<path d="M0 30C0 13.4315 13.4315 0 30 0H185C201.569 0 215 13.4315 215 30V185C215 201.569 201.569 215 185 215H30C13.4315 215 0 201.569 0 185V30Z" fill="#3F3F79"/>
<path d="M95 67C95 83.5685 81.5685 97 65 97C48.4315 97 35 83.5685 35 67C35 50.4315 48.4315 37 65 37C81.5685 37 95 50.4315 95 67Z" fill="#E4D67B"/>
<path d="M180 67C180 83.5685 166.569 97 150 97C133.431 97 120 83.5685 120 67C120 50.4315 133.431 37 150 37C166.569 37 180 50.4315 180 67Z" fill="#F887B0"/>
<path d="M95 148C95 164.569 81.5685 178 65 178C48.4315 178 35 164.569 35 148C35 131.431 48.4315 118 65 118C81.5685 118 95 131.431 95 148Z" fill="#F887B0"/>
<path d="M180 148C180 164.569 166.569 178 150 178C133.431 178 120 164.569 120 148C120 131.431 133.431 118 150 118C166.569 118 180 131.431 180 148Z" fill="#E4D67B"/>
</svg>
